<?xml version="1.0" standalone="no"?>
<!DOCTYPE svg PUBLIC "-//W3C//DTD SVG 20010904//EN"
 "http://www.w3.org/TR/2001/REC-SVG-20010904/DTD/svg10.dtd">
<svg version="1.0" xmlns="http://www.w3.org/2000/svg"
 width="554.000000pt" height="554.000000pt" viewBox="0 0 554.000000 554.000000"
 preserveAspectRatio="xMidYMid meet">

<g transform="translate(0.000000,554.000000) scale(0.100000,-0.100000)"
fill="#000000" stroke="none">
<path d="M1340 4574 c-199 -53 -362 -218 -415 -421 -13 -49 -15 -213 -13
-1163 1 -608 4 -1055 7 -995 4 61 9 99 12 85 6 -24 6 -24 9 5 2 30 2 30 10 5
5 -17 8 -19 9 -7 1 11 9 17 25 17 13 0 29 7 36 15 10 12 10 15 -1 15 -10 0
-10 3 -1 12 10 10 15 10 22 -2 7 -12 12 -12 22 -2 14 14 42 16 33 2 -8 -14 -3
-13 33 6 18 8 32 20 32 25 0 5 27 9 59 9 57 0 60 1 64 28 2 15 5 -4 7 -43 3
-54 4 -60 7 -27 3 27 9 42 18 42 11 0 15 -20 18 -82 1 -46 4 224 5 599 2 538
5 697 16 755 67 348 345 611 697 658 57 8 297 10 749 8 651 -4 667 -4 744 -26
272 -76 480 -274 574 -547 l27 -80 0 -755 0 -755 -31 -87 c-89 -248 -274 -438
-504 -518 -44 -15 -76 -31 -72 -35 4 -4 -2 -5 -13 -2 -11 4 -36 2 -55 -3 -34
-9 -34 -10 8 -5 35 4 42 2 42 -12 0 -10 9 -24 21 -31 13 -8 19 -20 16 -31 -3
-12 1 -18 11 -17 9 0 18 -7 20 -17 5 -24 38 -57 56 -57 21 0 40 -27 24 -33
-10 -4 -10 -6 0 -6 6 -1 12 -10 12 -21 0 -11 6 -20 14 -20 14 0 28 -27 35 -68
0 -4 15 -13 31 -20 39 -18 38 -32 -2 -33 -32 0 -33 0 -8 -10 15 -7 98 -9 210
-6 199 5 219 9 334 70 123 66 242 223 277 367 19 81 19 2699 0 2780 -52 215
-219 387 -423 435 -94 22 -2725 21 -2808 -1z m-200 -2404 c0 -5 -4 -10 -10
-10 -5 0 -10 5 -10 10 0 6 5 10 10 10 6 0 10 -4 10 -10z"/>
<path d="M2030 3814 c-188 -49 -337 -196 -385 -379 -13 -50 -15 -151 -14 -670
1 -335 4 -594 8 -575 4 23 9 31 14 22 5 -7 6 -21 2 -31 -4 -15 -1 -18 19 -14
25 5 25 5 5 26 -21 23 -22 27 -10 46 7 11 10 11 18 -3 8 -15 11 -14 31 4 11
11 26 20 32 20 5 0 10 5 10 10 0 6 6 10 13 10 6 0 18 14 25 30 8 17 18 30 24
30 7 0 6 -5 -1 -14 -15 -18 -3 -46 20 -46 27 0 37 30 16 45 -10 7 -17 18 -17
25 0 10 3 10 15 0 8 -7 27 -10 42 -7 16 4 22 4 16 1 -7 -3 -13 -14 -13 -25 0
-11 -7 -22 -15 -25 -8 -4 -15 -12 -15 -20 0 -8 -10 -14 -25 -14 -14 0 -26 -4
-26 -10 -5 -36 -3 -67 4 -63 4 2 7 10 7 16 0 9 33 11 125 9 102 -3 125 -6 125
-18 0 -12 15 -14 79 -12 75 2 80 0 117 -30 21 -18 43 -32 49 -32 5 0 4 -4 -4
-9 -10 -7 -6 -9 13 -8 l27 2 -23 15 c-13 8 -48 38 -78 66 -30 28 -63 51 -72
51 -21 0 -21 -2 -9 -26 7 -13 6 -18 -4 -18 -9 0 -13 10 -11 26 1 15 8 25 15
23 7 -1 11 3 8 10 -2 7 -10 12 -16 10 -7 -1 -10 2 -6 8 4 6 -2 23 -12 38 -98
145 -140 343 -109 522 37 221 185 418 389 522 188 94 448 91 636 -7 488 -256
524 -927 67 -1230 -30 -21 -53 -42 -49 -48 3 -5 1 -7 -5 -3 -6 3 -34 -3 -64
-15 -97 -39 -112 -42 -248 -48 -79 -3 -134 -10 -133 -16 1 -5 7 -11 15 -13 9
-2 8 0 -2 7 -21 15 22 14 130 -3 63 -10 77 -14 55 -18 l-30 -5 30 3 c17 1 44
5 60 8 27 5 27 5 5 -3 l-25 -9 30 -3 c24 -1 21 -3 -15 -8 l-45 -6 38 -23 c21
-12 47 -22 58 -22 23 0 25 -16 2 -24 -13 -5 -14 -9 -3 -19 10 -9 13 -9 17 1 3
6 11 12 19 12 10 0 14 -13 14 -48 0 -47 13 -71 45 -83 25 -10 85 -55 85 -65 0
-18 35 -44 58 -44 12 0 22 -4 22 -10 0 -5 -52 -11 -122 -13 -80 -2 -50 -3 87
-5 240 -2 312 9 415 60 127 65 241 210 270 345 7 32 10 286 8 743 l-3 695 -23
55 c-71 168 -214 290 -379 325 -100 22 -1342 21 -1423 -1z m1531 -217 c39 -26
79 -97 79 -142 0 -86 -81 -165 -170 -165 -88 0 -170 80 -170 165 0 44 40 116
80 143 46 31 134 31 181 -1z m-1428 -1320 c3 -7 -3 -13 -13 -13 -10 0 -16 6
-13 13 3 7 9 13 13 13 4 0 10 -6 13 -13z m86 -65 c7 -14 6 -19 -4 -19 -7 0
-13 9 -12 19 1 10 2 18 4 18 1 0 7 -8 12 -18z m659 -229 c-16 -2 -40 -2 -55 0
-16 2 -3 4 27 4 30 0 43 -2 28 -4z m352 -175 c0 -16 -3 -19 -11 -11 -6 6 -8
16 -5 22 11 17 16 13 16 -11z m-77 -25 c-7 -2 -19 -2 -25 0 -7 3 -2 5 12 5 14
0 19 -2 13 -5z m46 -17 c7 -8 8 -17 3 -20 -6 -3 -12 3 -15 14 -6 24 -4 25 12
6z m-18 -48 c5 -10 6 -18 1 -18 -8 0 -30 36 -40 65 -4 13 27 -25 39 -47z"/>
<path d="M2609 3162 c-125 -42 -228 -132 -287 -251 -37 -74 -37 -76 -37 -200
0 -125 0 -127 37 -203 63 -127 190 -228 326 -257 232 -49 466 83 543 307 79
228 -29 477 -250 580 -68 32 -86 36 -176 39 -78 2 -113 -1 -156 -15z"/>
<path d="M1750 2236 c0 -10 9 -16 21 -16 24 0 21 23 -4 28 -10 2 -17 -3 -17
-12z"/>
<path d="M1720 2211 c0 -6 5 -13 10 -16 6 -3 10 1 10 9 0 9 -4 16 -10 16 -5 0
-10 -4 -10 -9z"/>
<path d="M2160 2160 c0 -5 15 -10 34 -10 19 0 43 -3 53 -7 17 -6 17 -6 1 10
-18 18 -88 24 -88 7z"/>
<path d="M1650 2120 c0 -5 6 -10 14 -10 8 0 18 5 21 10 3 6 -3 10 -14 10 -12
0 -21 -4 -21 -10z"/>
<path d="M2275 2120 c3 -5 11 -10 16 -10 6 0 7 5 4 10 -3 6 -11 10 -16 10 -6
0 -7 -4 -4 -10z"/>
<path d="M1632 2080 c0 -14 2 -19 5 -12 2 6 2 18 0 25 -3 6 -5 1 -5 -13z"/>
<path d="M2370 2091 c0 -9 30 -24 36 -18 2 1 -6 8 -16 15 -11 7 -20 8 -20 3z"/>
<path d="M2429 2043 c-13 -15 -12 -15 9 -4 23 12 28 21 13 21 -5 0 -15 -7 -22
-17z"/>
<path d="M2535 2009 c-4 -6 -4 -13 -1 -16 3 -4 6 -1 6 5 0 6 8 13 18 15 15 4
15 5 0 6 -9 0 -20 -4 -23 -10z"/>
<path d="M2590 2000 c20 -13 33 -13 25 0 -3 6 -14 10 -23 10 -15 0 -15 -2 -2
-10z"/>
<path d="M91 1298 c1 -18 2 -19 6 -5 4 14 8 16 19 6 10 -8 14 -8 14 0 0 16 18
13 23 -4 4 -11 4 -10 3 2 -1 13 -11 19 -34 21 -28 3 -32 0 -31 -20z"/>
<path d="M94 1255 c-3 -8 -3 -19 1 -25 10 -16 35 -12 35 6 0 14 3 14 15 4 20
-16 19 -6 -1 14 -19 20 -43 21 -50 1z m22 -22 c-10 -10 -19 5 -10 18 6 11 8
11 12 0 2 -7 1 -15 -2 -18z"/>
<path d="M113 1203 c-13 -3 -23 -12 -23 -21 0 -15 2 -15 10 -2 9 13 11 13 20
0 6 -10 10 -11 10 -2 0 18 18 15 24 -5 3 -11 4 -8 3 6 -2 26 -10 30 -44 24z"/>
<path d="M91 1127 c1 -18 2 -19 6 -4 4 14 8 16 19 6 10 -8 14 -8 14 0 0 16 18
13 23 -4 4 -11 4 -10 3 2 -1 13 -11 18 -34 20 -27 1 -32 -2 -31 -20z"/>
<path d="M92 1073 c2 -12 14 -19 36 -21 27 -3 32 0 32 17 0 17 -6 21 -36 21
-28 0 -35 -3 -32 -17z m28 -3 c0 -5 -4 -10 -10 -10 -5 0 -10 5 -10 10 0 6 5
10 10 10 6 0 10 -4 10 -10z m30 0 c0 -5 -4 -10 -10 -10 -5 0 -10 5 -10 10 0 6
5 10 10 10 6 0 10 -4 10 -10z"/>
<path d="M95 1020 c-4 -7 -3 -16 3 -22 14 -14 57 -6 57 12 0 18 -50 26 -60 10z
m25 -10 c0 -5 -4 -10 -10 -10 -5 0 -10 5 -10 10 0 6 5 10 10 10 6 0 10 -4 10
-10z m30 0 c0 -5 -4 -10 -10 -10 -5 0 -10 5 -10 10 0 6 5 10 10 10 6 0 10 -4
10 -10z"/>
<path d="M95 960 c-4 -7 -3 -16 3 -22 14 -14 57 -6 57 12 0 18 -50 26 -60 10z
m55 -10 c0 -5 -11 -10 -25 -10 -14 0 -25 5 -25 10 0 6 11 10 25 10 14 0 25 -4
25 -10z"/>
<path d="M3730 966 c0 -2 7 -6 15 -10 8 -3 15 -1 15 4 0 6 -7 10 -15 10 -8 0
-15 -2 -15 -4z"/>
<path d="M93 895 c-3 -9 -3 -19 1 -22 3 -4 6 1 6 10 0 22 18 22 42 0 17 -15
18 -15 18 8 0 17 -3 20 -9 10 -6 -9 -11 -10 -15 -2 -10 16 -36 13 -43 -4z"/>
<path d="M95 851 c-3 -2 -5 -11 -5 -20 0 -13 2 -13 9 -2 5 7 14 10 20 7 6 -4
11 -1 11 6 1 8 7 5 16 -7 l16 -20 -4 20 c-2 14 -11 20 -31 20 -15 1 -30 -1
-32 -4z"/>
<path d="M115 790 l20 -9 -20 -1 -20 -1 20 -8 c12 -5 23 -4 27 2 10 16 0 27
-25 26 -21 0 -21 -1 -2 -9z"/>
<path d="M103 713 c15 -2 39 -2 55 0 15 2 2 4 -28 4 -30 0 -43 -2 -27 -4z"/>
<path d="M145 660 c-4 -6 -13 -9 -21 -6 -9 3 -11 0 -7 -11 5 -12 1 -14 -15 -8
-13 4 -22 2 -22 -4 0 -6 18 -11 40 -11 22 0 40 5 40 11 0 5 -6 7 -12 3 -9 -5
-8 -2 1 9 8 10 11 20 8 23 -3 3 -8 0 -12 -6z"/>
<path d="M114 590 c2 -23 40 -19 44 5 2 18 2 18 -8 3 -13 -21 -27 -23 -33 -5
-2 7 -3 6 -3 -3z"/>
<path d="M117 554 c-4 -4 -7 -16 -7 -26 0 -14 6 -19 23 -16 14 2 22 10 22 23
0 20 -25 32 -38 19z m31 -22 c2 -7 -3 -12 -12 -12 -9 0 -16 7 -16 16 0 17 22
14 28 -4z"/>
<path d="M95 489 c-3 -4 0 -9 7 -11 16 -6 58 2 58 11 0 9 -60 10 -65 0z"/>
<path d="M84 444 c3 -9 6 -18 6 -20 0 -11 31 -2 36 11 8 20 21 19 27 -2 4 -14
5 -12 6 5 1 16 -5 22 -19 22 -11 0 -23 -7 -26 -15 -4 -8 -10 -12 -15 -9 -5 3
-7 10 -4 15 4 5 1 9 -5 9 -7 0 -9 -7 -6 -16z"/>
<path d="M110 359 c0 -28 44 -23 47 6 l3 20 -9 -20 c-8 -17 -10 -18 -10 -2 -1
25 -31 21 -31 -4z"/>
<path d="M113 311 c-3 -11 -12 -22 -22 -24 -9 -3 3 -5 27 -6 43 -1 54 13 30
37 -17 17 -29 15 -35 -7z m37 -12 c0 -5 -7 -9 -15 -9 -15 0 -20 12 -9 23 8 8
24 -1 24 -14z"/>
<path d="M123 263 c-21 -8 -15 -43 6 -43 11 0 23 5 27 11 8 14 -17 38 -33 32z
m27 -23 c0 -5 -7 -10 -15 -10 -8 0 -15 5 -15 10 0 6 7 10 15 10 8 0 15 -4 15
-10z"/>
<path d="M93 193 c9 -2 17 -10 17 -18 0 -18 25 -26 39 -12 24 24 12 37 -31 36
-24 -1 -35 -3 -25 -6z m57 -13 c0 -5 -7 -10 -15 -10 -8 0 -15 5 -15 10 0 6 7
10 15 10 8 0 15 -4 15 -10z"/>
<path d="M140 143 c-8 -3 -26 -10 -40 -16 l-25 -9 30 -14 c37 -16 69 -19 45
-4 -12 8 -13 13 -2 30 7 11 11 20 10 19 -2 0 -10 -3 -18 -6z m-13 -29 c-3 -3
-12 -4 -19 -1 -8 3 -5 6 6 6 11 1 17 -2 13 -5z"/>
</g>
</svg>
