<?xml version="1.0" standalone="no"?>
<!DOCTYPE svg PUBLIC "-//W3C//DTD SVG 20010904//EN"
 "http://www.w3.org/TR/2001/REC-SVG-20010904/DTD/svg10.dtd">
<svg version="1.0" xmlns="http://www.w3.org/2000/svg"
 width="181.000000pt" height="189.000000pt" viewBox="0 0 181.000000 189.000000"
 preserveAspectRatio="xMidYMid meet">

<g transform="translate(0.000000,189.000000) scale(0.100000,-0.100000)"
fill="#000000" stroke="none">
<path d="M525 1800 c-246 -24 -393 -149 -442 -374 -23 -105 -23 -809 0 -914
44 -203 165 -325 362 -367 100 -21 809 -22 918 -1 186 36 312 157 364 348 15
54 18 116 18 458 0 436 -5 490 -57 600 -56 117 -174 207 -313 240 -63 14 -724
22 -850 10z m830 -163 c69 -19 104 -39 146 -84 78 -81 89 -134 96 -473 6 -292
-7 -530 -32 -601 -34 -98 -122 -166 -240 -188 -86 -16 -772 -14 -851 2 -117
25 -193 90 -231 200 -16 47 -18 93 -18 472 0 495 1 502 88 590 95 94 173 106
677 100 227 -3 329 -8 365 -18z"/>
<path d="M1310 1502 c-23 -11 -39 -29 -48 -53 -12 -33 -12 -41 3 -73 21 -43
44 -58 91 -58 107 0 138 146 40 187 -44 19 -44 19 -86 -3z"/>
<path d="M805 1386 c-119 -29 -231 -119 -284 -228 -153 -314 102 -664 449
-617 231 32 401 263 362 491 -43 252 -283 413 -527 354z m219 -165 c96 -43
160 -143 160 -251 0 -117 -64 -214 -172 -262 -65 -29 -181 -22 -245 15 -91 54
-137 134 -137 242 0 136 82 241 215 276 43 11 132 1 179 -20z"/>
</g>
</svg>
