<?xml version="1.0" standalone="no"?>
<!DOCTYPE svg PUBLIC "-//W3C//DTD SVG 20010904//EN"
 "http://www.w3.org/TR/2001/REC-SVG-20010904/DTD/svg10.dtd">
<svg version="1.0" xmlns="http://www.w3.org/2000/svg"
 width="1090.000000pt" height="335.000000pt" viewBox="0 0 1090.000000 335.000000"
 preserveAspectRatio="xMidYMid meet">

<g transform="translate(0.000000,335.000000) scale(0.100000,-0.100000)"
fill="#000000" stroke="none">
<path d="M2771 2854 c-149 -30 -265 -105 -319 -209 -23 -43 -27 -62 -26 -135
1 -214 121 -294 544 -359 102 -16 204 -37 226 -46 66 -26 82 -82 39 -134 -39
-45 -110 -65 -235 -65 -195 -1 -307 56 -344 177 -5 15 -21 17 -146 17 l-142 0
7 -32 c31 -158 100 -251 233 -315 115 -55 237 -76 417 -71 129 4 161 8 227 31
137 47 217 110 261 207 31 67 30 198 -1 262 -42 85 -134 144 -267 169 -27 5
-125 21 -216 34 -196 30 -257 46 -299 81 -23 20 -30 34 -30 63 0 77 95 122
259 122 129 0 227 -45 257 -117 l14 -34 135 0 c78 0 136 4 140 10 11 19 -24
128 -56 173 -61 86 -172 147 -316 172 -106 18 -264 18 -362 -1z"/>
<path d="M3662 2273 l3 -568 480 -3 c264 -1 495 0 513 3 l33 6 -3 112 -3 112
-367 3 -368 2 0 115 0 115 340 0 340 0 0 115 0 115 -340 0 -341 0 3 108 3 107
358 3 357 2 0 110 0 110 -505 0 -505 0 2 -567z"/>
<path d="M4783 2828 c2 -7 35 -89 72 -183 37 -93 112 -285 167 -425 56 -140
124 -313 152 -385 l51 -130 137 -3 c78 -2 144 1 155 6 10 6 25 27 32 49 16 45
160 412 312 794 60 151 109 278 109 282 0 4 -68 6 -152 5 l-152 -3 -89 -235
c-49 -129 -112 -299 -141 -377 -29 -79 -55 -145 -58 -148 -2 -3 -17 32 -32 77
-16 46 -44 124 -63 173 -41 105 -60 157 -138 363 l-57 152 -155 0 c-120 0
-154 -3 -150 -12z"/>
<path d="M6072 2273 l3 -568 497 -2 c274 -1 505 0 513 3 13 5 15 25 13 118
l-3 111 -367 3 -368 2 0 115 0 115 340 0 340 0 0 115 0 115 -340 0 -341 0 3
108 3 107 358 3 357 2 0 110 0 110 -505 0 -505 0 2 -567z"/>
<path d="M7240 2271 l0 -570 140 2 141 1 -3 402 c-2 222 0 400 4 396 4 -4 44
-68 88 -142 81 -134 125 -203 322 -500 l103 -155 145 -3 c80 -1 155 0 168 3
l22 5 0 565 0 565 -147 0 -146 0 6 -370 c3 -203 4 -370 2 -370 -2 0 -56 84
-121 188 -102 163 -213 340 -317 505 l-30 47 -189 0 -188 0 0 -569z"/>
<path d="M4175 1372 c-3 -3 -5 -58 -5 -122 0 -131 -6 -144 -62 -138 -26 2 -36
10 -48 36 -14 30 -18 32 -60 30 -43 -3 -45 -4 -43 -33 4 -46 23 -73 68 -95 79
-38 183 -19 227 41 16 21 19 44 19 148 0 68 -2 126 -5 128 -7 8 -84 11 -91 5z"/>
<path d="M5424 1371 c-2 -2 -4 -78 -4 -168 l0 -163 50 0 50 0 0 43 c0 36 5 46
34 70 19 15 37 27 39 27 2 0 23 -31 48 -70 l44 -69 62 -1 61 0 -70 103 -69
102 65 61 c36 33 66 63 66 67 0 4 -24 7 -54 7 -58 0 -75 -10 -178 -109 l-43
-41 -5 73 -5 72 -43 0 c-24 0 -46 -2 -48 -4z"/>
<path d="M6487 1374 c-4 -4 -7 -81 -7 -171 l0 -163 50 0 c48 0 50 1 50 28 0
17 8 32 21 41 24 14 21 16 56 -41 15 -25 23 -28 70 -28 29 0 53 2 53 5 0 2
-21 34 -47 71 l-47 67 50 43 49 44 -60 0 c-58 0 -63 -2 -100 -40 -21 -22 -42
-40 -45 -40 -3 0 -5 42 -5 92 l0 93 -40 3 c-23 2 -44 0 -48 -4z"/>
<path d="M4775 1264 c-19 -10 -31 -11 -33 -5 -2 6 -24 11 -48 11 l-44 0 0
-115 0 -115 45 0 44 0 3 72 c3 67 5 73 30 88 47 26 62 6 66 -84 l3 -76 49 0
50 0 0 81 c0 93 -17 132 -63 149 -41 14 -67 13 -102 -6z"/>
<path d="M5029 1265 c-38 -21 -59 -59 -59 -107 0 -52 21 -85 66 -104 43 -18
82 -18 117 0 26 14 27 14 27 -9 0 -12 -7 -26 -16 -29 -25 -10 -82 -7 -89 4 -8
13 -105 13 -105 0 0 -17 43 -50 79 -60 77 -21 179 -3 211 38 17 22 20 40 20
148 l0 124 -44 0 c-24 0 -46 -5 -48 -11 -2 -6 -14 -5 -33 5 -37 20 -91 20
-126 1z m146 -79 c33 -50 -23 -104 -80 -78 -33 15 -43 57 -20 82 26 29 80 27
100 -4z"/>
<path d="M5883 1269 c-78 -23 -110 -125 -57 -188 44 -52 145 -67 219 -31 48
23 65 53 65 114 0 89 -108 139 -227 105z m121 -75 c21 -20 20 -58 0 -79 -26
-25 -85 -16 -103 16 -13 24 -13 29 2 53 20 30 75 36 101 10z"/>
<path d="M6218 1266 c-56 -20 -77 -51 -78 -112 0 -40 5 -57 24 -77 59 -64 205
-61 261 5 22 26 25 39 23 81 -3 44 -7 54 -39 79 -44 36 -131 47 -191 24z m128
-81 c16 -25 12 -63 -10 -77 -6 -4 -26 -8 -45 -8 -36 0 -60 21 -61 54 -1 55 85
78 116 31z"/>
<path d="M4320 1177 c0 -86 2 -95 24 -116 32 -31 95 -38 137 -17 21 11 35 13
37 6 2 -5 23 -10 46 -10 l42 0 -1 113 0 112 -47 3 -48 3 0 -70 c0 -76 -13
-101 -54 -101 -37 0 -46 19 -46 97 l0 73 -45 0 -45 0 0 -93z"/>
<path d="M10470 290 l0 -30 76 0 76 0 -33 -41 c-32 -40 -58 -98 -59 -131 0
-14 8 -18 40 -18 37 0 40 2 40 27 0 39 35 105 76 142 24 22 34 40 32 54 -3 21
-8 22 -125 25 l-123 3 0 -31z"/>
</g>
</svg>
