<?xml version="1.0" standalone="no"?>
<!DOCTYPE svg PUBLIC "-//W3C//DTD SVG 20010904//EN"
 "http://www.w3.org/TR/2001/REC-SVG-20010904/DTD/svg10.dtd">
<svg version="1.0" xmlns="http://www.w3.org/2000/svg"
 width="1200.000000pt" height="1200.000000pt" viewBox="0 0 1200.000000 1200.000000"
 preserveAspectRatio="xMidYMid meet">

<g transform="translate(0.000000,1200.000000) scale(0.100000,-0.100000)"
fill="#000000" stroke="none">
<path d="M0 6000 l0 -6000 6000 0 6000 0 0 6000 0 6000 -6000 0 -6000 0 0
-6000z m6440 4974 c96 -8 234 -24 305 -35 111 -17 173 -30 385 -74 14 -3 61
-15 105 -26 44 -12 98 -26 120 -31 22 -5 120 -36 219 -69 423 -143 787 -319
1146 -553 580 -377 1082 -878 1456 -1451 92 -140 102 -156 179 -295 237 -425
422 -901 510 -1310 10 -46 44 -215 48 -240 3 -14 12 -63 20 -110 80 -437 80
-1123 0 -1560 -8 -47 -17 -96 -20 -110 -4 -25 -38 -194 -48 -240 -35 -160
-118 -436 -193 -635 -87 -233 -210 -488 -381 -790 -13 -22 -64 -103 -114 -180
-361 -553 -868 -1063 -1413 -1423 -104 -68 -167 -107 -364 -221 -90 -53 -381
-192 -511 -244 -225 -91 -478 -174 -669 -219 -110 -26 -99 -23 -145 -35 -136
-36 -419 -79 -640 -99 -321 -28 -872 -15 -1105 26 -30 5 -109 19 -175 30 -105
17 -197 35 -273 54 -486 116 -867 261 -1274 485 -506 278 -904 591 -1300 1022
-250 272 -494 608 -658 909 -209 381 -369 766 -460 1105 -12 44 -28 105 -36
135 -8 30 -17 66 -19 80 -3 14 -13 66 -24 115 -11 50 -22 106 -25 125 -3 19
-12 71 -20 115 -78 423 -78 1127 0 1550 8 44 17 96 20 115 3 19 14 76 25 125
10 50 21 101 23 115 3 14 12 50 20 80 8 30 24 91 36 135 91 340 282 799 465
1115 21 36 46 81 57 100 37 65 202 314 262 395 246 332 564 664 886 926 576
469 1308 827 2010 983 325 73 664 118 970 130 135 5 410 -4 600 -20z"/>
<path d="M6808 8213 c7 -3 16 -2 19 1 4 3 -2 6 -13 5 -11 0 -14 -3 -6 -6z"/>
<path d="M8548 8063 c7 -3 16 -2 19 1 4 3 -2 6 -13 5 -11 0 -14 -3 -6 -6z"/>
<path d="M6325 7909 c-4 -6 -5 -12 -2 -15 2 -3 7 2 10 11 7 17 1 20 -8 4z"/>
<path d="M8540 7690 c-9 -6 -10 -10 -3 -10 6 0 15 5 18 10 8 12 4 12 -15 0z"/>
<path d="M8615 7208 l-20 -21 23 12 c12 6 22 16 22 21 0 13 -2 12 -25 -12z"/>
<path d="M3450 6773 c0 -6 8 -17 18 -24 16 -13 16 -13 2 6 -8 11 -16 22 -17
24 -2 2 -3 0 -3 -6z"/>
<path d="M3600 6580 c6 -11 13 -20 16 -20 2 0 0 9 -6 20 -6 11 -13 20 -16 20
-2 0 0 -9 6 -20z"/>
<path d="M3555 5700 c10 -11 20 -20 23 -20 3 0 -3 9 -13 20 -10 11 -20 20 -23
20 -3 0 3 -9 13 -20z"/>
<path d="M4070 5340 c-9 -6 -10 -10 -3 -10 6 0 15 5 18 10 8 12 4 12 -15 0z"/>
<path d="M7649 4603 c-13 -16 -12 -17 4 -4 16 13 21 21 13 21 -2 0 -10 -8 -17
-17z"/>
<path d="M6890 3980 c-9 -6 -10 -10 -3 -10 6 0 15 5 18 10 8 12 4 12 -15 0z"/>
</g>
</svg>
