<?xml version="1.0" standalone="no"?>
<!DOCTYPE svg PUBLIC "-//W3C//DTD SVG 20010904//EN"
 "http://www.w3.org/TR/2001/REC-SVG-20010904/DTD/svg10.dtd">
<svg version="1.0" xmlns="http://www.w3.org/2000/svg"
 width="204.000000pt" height="204.000000pt" viewBox="0 0 204.000000 204.000000"
 preserveAspectRatio="xMidYMid meet">

<g transform="translate(0.000000,204.000000) scale(0.100000,-0.100000)"
fill="#000000" stroke="none">
<path d="M820 2019 c-291 -62 -525 -231 -682 -489 -93 -154 -143 -355 -135
-545 29 -745 814 -1210 1477 -875 204 103 361 265 461 475 111 235 129 493 52
740 -103 330 -379 592 -718 681 -139 37 -321 42 -455 13z m620 -510 c25 -11
58 -32 73 -47 l28 -27 60 21 59 21 -25 -45 c-14 -24 -25 -47 -25 -51 0 -4 19
-5 43 -3 l42 4 -48 -49 -48 -50 -10 -101 c-20 -220 -100 -380 -264 -530 -78
-72 -195 -135 -302 -164 -114 -30 -309 -30 -416 0 -44 12 -93 30 -110 39 l-32
17 75 12 c91 14 114 23 208 76 71 41 88 58 56 58 -36 0 -162 69 -202 111 -23
23 -42 46 -42 51 0 4 29 8 65 10 l66 3 -82 54 c-55 36 -90 68 -109 98 -28 44
-47 100 -37 110 3 2 26 -4 51 -16 25 -11 46 -18 46 -17 0 2 -16 29 -35 61 -51
85 -68 145 -63 225 2 38 6 71 9 74 3 3 28 -16 57 -42 116 -107 328 -204 478
-218 l70 -7 0 69 c0 86 16 135 63 187 74 83 202 111 301 66z"/>
</g>
</svg>
