<?xml version="1.0" standalone="no"?>
<!DOCTYPE svg PUBLIC "-//W3C//DTD SVG 20010904//EN"
 "http://www.w3.org/TR/2001/REC-SVG-20010904/DTD/svg10.dtd">
<svg version="1.0" xmlns="http://www.w3.org/2000/svg"
 width="1600.000000pt" height="1600.000000pt" viewBox="0 0 1600.000000 1600.000000"
 preserveAspectRatio="xMidYMid meet">

<g transform="translate(0.000000,1600.000000) scale(0.100000,-0.100000)"
fill="#000000" stroke="none">
<path d="M6740 11759 c-212 -4 -585 -14 -830 -23 -416 -15 -526 -21 -965 -46
-456 -27 -933 -80 -1118 -126 -395 -98 -723 -364 -910 -739 -87 -175 -147
-429 -196 -830 -77 -631 -105 -1171 -105 -1990 -1 -1016 59 -1866 170 -2415
69 -342 182 -568 389 -776 193 -194 408 -315 661 -373 237 -54 673 -103 1159
-131 951 -54 1490 -70 2625 -77 1973 -12 3656 54 4400 173 331 53 586 178 800
393 255 257 359 515 444 1111 41 280 64 535 95 1020 33 515 38 1411 11 1970
-39 817 -127 1488 -235 1791 -117 328 -354 598 -660 752 -215 108 -505 165
-1096 217 -513 45 -1336 82 -2219 100 -527 11 -1844 10 -2420 -1z m321 -2221
c68 -39 153 -88 189 -108 64 -36 217 -124 595 -343 105 -61 215 -125 245 -142
115 -66 540 -311 655 -378 66 -38 140 -81 165 -94 25 -14 65 -38 90 -53 25
-15 108 -63 185 -107 77 -45 228 -131 335 -193 107 -62 198 -115 202 -119 4
-4 -83 -59 -195 -123 -111 -64 -317 -182 -457 -264 -140 -81 -280 -160 -310
-177 -30 -16 -67 -38 -82 -48 -14 -11 -29 -19 -32 -19 -3 0 -43 -22 -88 -49
-119 -69 -486 -281 -533 -307 -22 -12 -96 -54 -165 -94 -69 -40 -260 -150
-425 -245 -165 -94 -344 -197 -398 -229 -54 -31 -102 -56 -107 -56 -7 0 -10
583 -10 1610 0 938 4 1610 9 1610 5 0 64 -32 132 -72z"/>
</g>
</svg>
